Jump_normalized_Motion_pl15
version=1
nRows=21
nColumns=43
inDegrees=yes
endheader
time		pelvis_tilt		pelvis_list		pelvis_rotation		pelvis_tx		pelvis_ty		pelvis_tz		hip_flexion_r		hip_adduction_r		hip_rotation_r		knee_angle_r		ankle_angle_r		subtalar_angle_r		mtp_angle_r		hip_flexion_l		hip_adduction_l		hip_rotation_l		knee_angle_l		ankle_angle_l		subtalar_angle_l		mtp_angle_l		lumbar_extension		lumbar_bending		lumbar_rotation		neck_flexion		neck_lateral_bending		neck_rotation		arm_flex_r		arm_add_r		arm_rot_r		elbow_flex_r		pro_sup_r		wrist_flex_r		wrist_dev_r		hand_finger_flex_r		arm_flex_l		arm_add_l		arm_rot_l		elbow_flex_l		pro_sup_l		wrist_flex_l		wrist_dev_l		hand_finger_flex_l		
1.274167		0.604279		-8.318891		87.189522		0.063905		1.761878		1.865073		84.638065		-2.501992		4.991071		-149.064773		24.857177		8.411426		9.217785		82.910290		-6.682798		13.478512		-149.214334		22.623590		24.377410		22.827875		-59.656239		-3.343681		2.549581		45.109303		1.876224		-4.989812		60.686436		-25.282130		6.338415		69.233717		101.293929		-0.819706		-4.384758		-30.998687		68.791196		-17.354233		14.104163		54.376059		108.371301		-7.590183		0.375007		-7.555359		
1.277399		0.569818		-8.713704		87.205819		0.063790		1.761754		1.862754		84.720638		-2.569841		5.104718		-149.026906		24.817883		8.573344		9.737907		82.946683		-6.709991		13.376578		-149.157867		22.656101		24.339091		23.046435		-59.136499		-3.310103		2.553778		45.005520		1.896051		-5.000928		62.399417		-25.484398		6.942698		69.540379		101.365013		-1.026631		-4.299211		-30.468087		70.339175		-17.328851		14.787793		54.367258		108.245447		-7.689732		0.393654		-7.432210		
1.280631		0.600728		-9.129840		87.248962		0.063742		1.761578		1.860376		84.796220		-2.616468		5.096008		-148.991937		24.794924		8.661251		9.992280		83.020791		-6.735470		13.372955		-149.122222		22.712295		24.323730		23.143879		-58.592919		-3.228043		2.584715		44.970834		1.915311		-5.014956		64.141529		-25.541020		7.400940		69.756626		101.462802		-1.050001		-4.240468		-30.151742		71.881435		-17.257886		15.301493		54.357846		108.356716		-7.645848		0.472027		-7.342334		
1.283864		0.652326		-9.540168		87.302361		0.063704		1.761465		1.857947		84.846578		-2.656093		5.064104		-148.931826		24.788564		8.778578		10.285807		83.073055		-6.755942		13.399876		-149.075162		22.779408		24.296757		23.245658		-58.059283		-3.124117		2.628704		44.909360		1.937490		-5.028336		65.926371		-25.589116		7.914077		69.967423		101.525511		-1.149763		-4.156568		-29.853853		73.419796		-17.191423		15.892884		54.369821		108.492456		-7.699735		0.553702		-7.291869		
1.287096		0.695474		-9.986572		87.334726		0.063691		1.761340		1.855439		84.907787		-2.677558		5.025964		-148.875404		24.789723		8.860340		10.483711		83.142393		-6.788046		13.415583		-149.021319		22.832014		24.275235		23.312476		-57.503149		-3.044842		2.674801		45.007523		1.973901		-5.053299		67.691396		-25.499476		8.223603		70.145881		101.536086		-1.211987		-4.107268		-29.668602		74.920595		-17.030525		16.265371		54.385388		108.598160		-7.760916		0.632243		-7.273547		
1.290328		0.790188		-10.412172		87.371996		0.063664		1.761147		1.852896		84.924771		-2.673523		4.955979		-148.810566		24.815509		8.960270		10.773768		83.191088		-6.808699		13.488681		-148.979559		22.916224		24.192954		23.406021		-56.937200		-2.923980		2.777314		44.861455		2.002166		-5.068099		69.531154		-25.545890		8.804325		70.299889		101.505442		-1.258418		-4.017687		-29.445174		76.454905		-17.006612		16.981912		54.445437		108.799545		-7.866412		0.743047		-7.263872		
1.293561		0.853065		-10.855476		87.392182		0.063660		1.761025		1.850286		84.952207		-2.649828		4.908149		-148.737442		24.848981		9.020532		10.964748		83.237617		-6.837343		13.515864		-148.931210		22.976468		24.122774		23.470263		-56.375756		-2.843051		2.851203		44.921988		2.047929		-5.091224		71.336103		-25.429476		9.158057		70.418204		101.482299		-1.272465		-3.963416		-29.321284		77.955372		-16.857966		17.427887		54.494711		108.945560		-7.963063		0.829660		-7.277518		
1.296793		0.950918		-11.248561		87.416437		0.063621		1.760960		1.847642		84.897380		-2.625476		4.831212		-148.654129		24.892909		9.094718		11.302335		83.226596		-6.860984		13.563108		-148.884487		23.052474		23.977340		23.583126		-55.852360		-2.728249		2.951366		44.810251		2.079269		-5.093382		73.235694		-25.419380		9.774183		70.502102		101.430855		-1.342605		-3.868849		-29.153546		79.502146		-16.846427		18.197136		54.570554		109.135351		-8.183499		0.935680		-7.318704		
1.300025		0.991745		-11.681211		87.426928		0.063551		1.760964		1.844903		84.895670		-2.636583		4.798189		-148.565865		24.915865		9.132371		11.491165		83.223236		-6.886530		13.536146		-148.817181		23.088474		23.907045		23.649966		-55.315325		-2.662408		3.012416		44.950816		2.137362		-5.116038		75.021424		-25.206178		10.018084		70.595979		101.422856		-1.405963		-3.826747		-29.071707		80.965332		-16.638923		18.529853		54.636681		109.219648		-8.321036		0.989127		-7.352778		
1.303258		1.048366		-12.027960		87.446542		0.063390		1.761164		1.842099		84.758131		-2.675898		4.756488		-148.455263		24.948451		9.183475		11.837197		83.099044		-6.879437		13.488170		-148.728725		23.148715		23.721183		23.778007		-54.857230		-2.557322		3.076466		44.843021		2.167253		-5.113017		76.940685		-25.150042		10.635672		70.649637		101.495111		-1.517282		-3.716156		-28.944259		82.503762		-16.641487		19.303858		54.734297		109.363794		-8.548973		1.038027		-7.431168		
1.306490		1.075292		-12.314206		87.478858		0.063158		1.761621		1.839172		84.542101		-2.747298		4.749480		-148.340270		24.930456		9.228371		12.314944		82.873664		-6.823813		13.395414		-148.606364		23.163258		23.493731		23.957810		-54.496224		-2.451515		3.076715		44.934861		2.181277		-5.091414		78.844325		-24.931144		11.124320		70.693230		101.584662		-1.856795		-3.607412		-28.831046		84.039972		-16.591901		19.940538		54.790769		109.303141		-8.942339		1.057531		-7.599486		
1.309722		1.076487		-12.665568		87.496982		0.062894		1.761910		1.836220		84.406291		-2.827830		4.759833		-148.231332		24.944449		9.231784		12.791042		82.713142		-6.774195		13.271388		-148.499852		23.210177		23.323200		24.142720		-54.048254		-2.375568		3.075465		44.923902		2.250273		-5.113921		80.745362		-24.842565		11.730461		70.738975		101.701786		-2.019669		-3.513811		-28.626399		85.560135		-16.551726		20.594176		54.866719		109.225141		-9.134469		1.058002		-7.686633		
1.312955		1.076952		-13.078210		87.499510		0.062672		1.762210		1.833157		84.324205		-2.901469		4.755364		-148.110872		24.960992		9.227198		12.968157		82.590795		-6.751831		13.169704		-148.378104		23.236370		23.255368		24.214127		-53.546593		-2.312269		3.101523		45.075176		2.321377		-5.147232		82.514511		-24.573730		11.987559		70.799367		101.810697		-2.065935		-3.462210		-28.544010		86.971253		-16.328698		20.824121		54.933405		109.247595		-9.174855		1.063391		-7.731113		
1.316187		1.096390		-13.389989		87.513757		0.062320		1.762861		1.829931		84.078579		-2.993807		4.741514		-147.947113		24.982016		9.206706		13.237106		82.306783		-6.711869		13.040466		-148.212712		23.272565		23.096211		24.319978		-53.159705		-2.211881		3.126254		45.119461		2.349471		-5.149158		84.383388		-24.382164		12.478665		70.815132		101.989591		-2.174756		-3.362105		-28.459484		88.400464		-16.204635		21.234068		55.021057		109.266503		-9.278717		1.073262		-7.826846		
1.319419		1.172278		-13.522927		87.537311		0.061961		1.764023		1.826508		83.561590		-3.067758		4.653648		-147.737832		24.939053		9.142398		13.804931		81.797469		-6.715387		12.889965		-148.032236		23.260840		22.750231		24.534740		-53.000541		-2.057822		3.185891		45.276927		2.281349		-5.086882		86.329442		-24.110092		13.040935		70.770737		102.086639		-2.615121		-3.232515		-28.420574		89.844029		-16.080372		21.652202		55.129373		108.972727		-9.663149		1.148833		-8.039582		
1.322652		1.206750		-13.902993		87.516774		0.061714		1.764636		1.823063		83.347315		-3.108174		4.606182		-147.547253		24.949232		9.087919		14.086581		81.549043		-6.759331		12.765067		-147.849726		23.265853		22.629226		24.645204		-52.528839		-1.983783		3.267781		45.399319		2.360874		-5.101073		88.049002		-23.806667		13.333585		70.780561		102.135437		-2.736477		-3.172738		-28.366623		91.132028		-15.805745		21.781966		55.229337		108.825202		-9.815413		1.199690		-8.113227		
1.325884		1.334466		-14.068330		87.491723		0.061435		1.765646		1.819449		82.838937		-3.076296		4.447659		-147.328495		24.905387		8.927197		14.730574		81.057235		-6.879996		12.673362		-147.698492		23.247298		22.339071		24.914543		-52.302208		-1.832813		3.424937		45.472186		2.267528		-5.050808		89.958266		-23.574889		13.982880		70.714268		102.175824		-3.034678		-3.014377		-28.341201		92.497771		-15.642872		22.119081		55.343406		108.428375		-10.122933		1.356812		-8.187830		
1.329116		1.363786		-14.535238		87.444808		0.061273		1.765952		1.815896		82.728811		-3.064865		4.406655		-147.160802		24.951808		8.870483		14.849114		80.899814		-6.973291		12.568058		-147.547457		23.245903		22.309631		24.970284		-51.696406		-1.789114		3.521394		45.537060		2.385010		-5.080950		91.561637		-23.196074		14.174092		70.694185		102.250557		-3.011351		-2.949308		-28.321775		93.711119		-15.306155		22.103667		55.389870		108.393858		-10.160207		1.409219		-8.192645		
1.332348		1.436298		-14.937183		87.380244		0.061217		1.766359		1.812323		82.531039		-3.013655		4.330899		-146.987301		25.002646		8.783105		14.996221		80.682199		-7.099791		12.472919		-147.404790		23.224653		22.228791		25.044547		-51.163703		-1.735613		3.659883		45.545495		2.421020		-5.076081		93.241565		-22.812707		14.497988		70.627379		102.390980		-3.010199		-2.831091		-28.340748		94.957080		-15.022310		22.168766		55.412573		108.375091		-10.177042		1.483301		-8.196367		
1.335581		1.511614		-15.285417		87.346655		0.061021		1.766695		1.808337		82.212501		-2.979634		4.220971		-146.842472		24.984629		8.685753		15.176005		80.389217		-7.202486		12.430856		-147.290959		23.146911		22.160308		25.156669		-50.658826		-1.628559		3.807032		45.386972		2.410165		-5.035516		94.624139		-22.458032		14.645758		70.835440		102.517757		-3.123669		-2.793589		-28.446485		96.045608		-14.824700		22.170119		55.641971		108.353359		-10.215209		1.441720		-8.236799		
1.338813		1.731535		-15.511467		87.279355		0.060977		1.767502		1.804638		81.721439		-2.796876		3.914957		-146.584715		25.004090		8.386471		15.736122		80.003473		-7.412764		12.486784		-147.152913		22.990262		21.951736		25.518682		-50.324920		-1.434605		4.050131		45.453280		2.252837		-4.911068		96.542955		-21.995105		15.352681		70.469778		102.861277		-3.343460		-2.450342		-28.735507		97.397364		-14.722432		22.451144		55.530535		108.300035		-10.209787		1.474131		-8.337639		
